<svg xmlns="http://www.w3.org/2000/svg" xmlns:xlink="http://www.w3.org/1999/xlink" id="svg26" width="48" height="48" version="1.1" viewBox="0 0 48 48">
 <defs id="defs25">
  <linearGradient id="linearGradient841">
   <stop style="stop-color:#000000;stop-opacity:1" id="stop837" offset="0"/>
   <stop style="stop-color:#000000;stop-opacity:0" id="stop839" offset="1"/>
  </linearGradient>
  <linearGradient id="linearGradient843" x1="11.1" x2="31.741" y1="19.514" y2="40.155" gradientUnits="userSpaceOnUse" xlink:href="#linearGradient841"/>
 </defs>
 <path id="path860" d="m 24,11 c 3,0 22,0 22,12.7001 V 34.299899 C 46,47 45,47 24,47 20,47 2,47 1.9999998,34.299899 V 23.7001 C 2,11 21,11 24,11 Z" style="opacity:0.1;fill:#000000;fill-opacity:1;stroke:none;stroke-width:1.63325131;stroke-linecap:round;stroke-linejoin:round;stroke-miterlimit:4;stroke-dasharray:none;stroke-opacity:1"/>
 <ellipse style="opacity:1;fill:#37474f;fill-opacity:1;stroke:none;stroke-width:3.81538677;stroke-linecap:round;stroke-linejoin:round;stroke-miterlimit:4;stroke-dasharray:none;stroke-opacity:1" id="path883" cx="24" cy="11" rx="8" ry="3"/>
 <path style="opacity:1;fill:#455a64;fill-opacity:1;stroke:none;stroke-width:1.63325131;stroke-linecap:round;stroke-linejoin:round;stroke-miterlimit:4;stroke-dasharray:none;stroke-opacity:1" id="rect865" d="m 24,10 c 3,0 22,0 22,12.7001 V 33.299899 C 46,46 45,46 24,46 20,46 2,46 1.9999998,33.299899 V 22.7001 C 2,10 21,10 24,10 Z"/>
 <path id="path871" d="m 22,14 c 2.181819,0 16,0 16,9.877856 v 8.244288 C 38,42 24.909091,42 22,42 19.090909,42 6,42 6,32.122144 V 23.877856 C 6,14 19.818181,14 22,14 Z" style="opacity:0.3;fill:#000000;fill-opacity:1;stroke:none;stroke-width:1.22837067;stroke-linecap:round;stroke-linejoin:round;stroke-miterlimit:4;stroke-dasharray:none;stroke-opacity:1"/>
 <path style="opacity:0.5;fill:none;stroke:#26a69a;stroke-width:4;stroke-linecap:round;stroke-linejoin:miter;stroke-miterlimit:4;stroke-dasharray:none;stroke-opacity:1" id="path876" d="M 22.000132,21 17.000786,37"/>
 <path id="path875" d="M 33.000132,21 28.000786,37" style="opacity:0.5;fill:none;stroke:#26a69a;stroke-width:4;stroke-linecap:round;stroke-linejoin:miter;stroke-miterlimit:4;stroke-dasharray:none;stroke-opacity:1"/>
 <circle id="circle862" cx="41" cy="40" r="3" style="opacity:0.1;fill:#000000;fill-opacity:1;stroke:none;stroke-width:4.80000019;stroke-linecap:round;stroke-linejoin:round;stroke-miterlimit:4;stroke-dasharray:none;stroke-opacity:1"/>
 <circle style="opacity:1;fill:#ffffff;fill-opacity:1;stroke:none;stroke-width:4.80000019;stroke-linecap:round;stroke-linejoin:round;stroke-miterlimit:4;stroke-dasharray:none;stroke-opacity:1" id="path877" cx="41" cy="39" r="3"/>
 <path style="color:#000000;font-style:normal;font-variant:normal;font-weight:normal;font-stretch:normal;font-size:medium;line-height:normal;font-family:sans-serif;font-variant-ligatures:normal;font-variant-position:normal;font-variant-caps:normal;font-variant-numeric:normal;font-variant-alternates:normal;font-feature-settings:normal;text-indent:0;text-align:start;text-decoration:none;text-decoration-line:none;text-decoration-style:solid;text-decoration-color:#000000;letter-spacing:normal;word-spacing:normal;text-transform:none;writing-mode:lr-tb;direction:ltr;text-orientation:mixed;dominant-baseline:auto;baseline-shift:baseline;text-anchor:start;white-space:normal;shape-padding:0;clip-rule:nonzero;display:inline;overflow:visible;visibility:visible;opacity:1;isolation:auto;mix-blend-mode:normal;color-interpolation:sRGB;color-interpolation-filters:linearRGB;solid-color:#000000;solid-opacity:1;vector-effect:none;fill:#37474f;fill-opacity:1;fill-rule:nonzero;stroke:none;stroke-width:2;stroke-linecap:butt;stroke-linejoin:miter;stroke-miterlimit:4;stroke-dasharray:none;stroke-dashoffset:0;stroke-opacity:1;color-rendering:auto;image-rendering:auto;shape-rendering:auto;text-rendering:auto;enable-background:accumulate" id="path891" d="m 18.814453,1.4179688 -1.628906,1.1640624 5,7 1.628906,-1.1640624 z"/>
 <circle id="circle869" cx="18.5" cy="3.5" r="2.5" style="opacity:0.1;fill:#000000;fill-opacity:1;stroke:none;stroke-width:2;stroke-linecap:round;stroke-linejoin:round;stroke-miterlimit:4;stroke-dasharray:none;stroke-opacity:1"/>
 <circle style="opacity:1;fill:#455a64;fill-opacity:1;stroke:none;stroke-width:2;stroke-linecap:round;stroke-linejoin:round;stroke-miterlimit:4;stroke-dasharray:none;stroke-opacity:1" id="path893" cx="18.5" cy="2.5" r="2.5"/>
 <path style="color:#000000;font-style:normal;font-variant:normal;font-weight:normal;font-stretch:normal;font-size:medium;line-height:normal;font-family:sans-serif;font-variant-ligatures:normal;font-variant-position:normal;font-variant-caps:normal;font-variant-numeric:normal;font-variant-alternates:normal;font-feature-settings:normal;text-indent:0;text-align:start;text-decoration:none;text-decoration-line:none;text-decoration-style:solid;text-decoration-color:#000000;letter-spacing:normal;word-spacing:normal;text-transform:none;writing-mode:lr-tb;direction:ltr;text-orientation:mixed;dominant-baseline:auto;baseline-shift:baseline;text-anchor:start;white-space:normal;shape-padding:0;clip-rule:nonzero;display:inline;overflow:visible;visibility:visible;opacity:1;isolation:auto;mix-blend-mode:normal;color-interpolation:sRGB;color-interpolation-filters:linearRGB;solid-color:#000000;solid-opacity:1;vector-effect:none;fill:#37474f;fill-opacity:1;fill-rule:nonzero;stroke:none;stroke-width:2;stroke-linecap:butt;stroke-linejoin:miter;stroke-miterlimit:4;stroke-dasharray:none;stroke-dashoffset:0;stroke-opacity:1;color-rendering:auto;image-rendering:auto;shape-rendering:auto;text-rendering:auto;enable-background:accumulate" id="path899" d="m 29.185547,1.4179688 -5,7 1.628906,1.1640624 5,-7 z"/>
 <circle style="opacity:0.1;fill:#000000;fill-opacity:1;stroke:none;stroke-width:2;stroke-linecap:round;stroke-linejoin:round;stroke-miterlimit:4;stroke-dasharray:none;stroke-opacity:1" id="circle871" cx="-29.5" cy="3.5" r="2.5" transform="scale(-1,1)"/>
 <circle id="circle901" cx="-29.5" cy="2.5" r="2.5" transform="scale(-1,1)" style="opacity:1;fill:#455a64;fill-opacity:1;stroke:none;stroke-width:2;stroke-linecap:round;stroke-linejoin:round;stroke-miterlimit:4;stroke-dasharray:none;stroke-opacity:1"/>
 <path style="opacity:0.25;fill:url(#linearGradient843);fill-opacity:1;stroke:none;stroke-width:1.87390852;stroke-linecap:round;stroke-linejoin:round;stroke-miterlimit:4;stroke-dasharray:none;stroke-opacity:1" id="rect913" d="M 12.373047 19.552734 L 11.171875 20.697266 L 12.476562 27.191406 L 15.148438 34.388672 L 15.587891 38.410156 L 19.072266 41.894531 C 20.321222 41.979228 21.404577 42 22 42 C 24.711258 42 36.261209 41.996563 37.820312 34 L 23.373047 19.552734 L 22.171875 20.697266 L 23.476562 27.191406 L 25.521484 32.701172 L 12.373047 19.552734 z"/>
 <path style="fill:none;stroke:#26a69a;stroke-width:4;stroke-linecap:round;stroke-linejoin:miter;stroke-miterlimit:4;stroke-dasharray:none;stroke-opacity:1" id="path870" d="m 11.000132,21 6.000654,16"/>
 <path id="path873" d="m 22.000132,21 6.000654,16" style="fill:none;stroke:#26a69a;stroke-width:4;stroke-linecap:round;stroke-linejoin:miter;stroke-miterlimit:4;stroke-dasharray:none;stroke-opacity:1"/>
 <path style="opacity:0.1;fill:#ffffff;fill-opacity:1;stroke:none;stroke-width:1.63325131;stroke-linecap:round;stroke-linejoin:round;stroke-miterlimit:4;stroke-dasharray:none;stroke-opacity:1" id="path864" d="M 24 10 C 21 10 2.0000002 9.9991188 2 22.699219 L 2 23.699219 C 2.0000002 10.999119 21 11 24 11 C 27 11 46 10.999119 46 23.699219 L 46 22.699219 C 46 9.9991187 27 10 24 10 z"/>
 <path style="opacity:0.1;fill:#ffffff;fill-opacity:1;stroke:none;stroke-width:2;stroke-linecap:round;stroke-linejoin:round;stroke-miterlimit:4;stroke-dasharray:none;stroke-opacity:1" id="circle873" d="M 18.5 0 A 2.5 2.5 0 0 0 16 2.5 A 2.5 2.5 0 0 0 16.052734 2.9960938 A 2.5 2.5 0 0 1 18.5 1 A 2.5 2.5 0 0 1 20.947266 3.0039062 A 2.5 2.5 0 0 0 21 2.5 A 2.5 2.5 0 0 0 18.5 0 z"/>
 <path style="opacity:0.1;fill:#ffffff;fill-opacity:1;stroke:none;stroke-width:2;stroke-linecap:round;stroke-linejoin:round;stroke-miterlimit:4;stroke-dasharray:none;stroke-opacity:1" id="circle875" d="M 29.5 0 A 2.5 2.5 0 0 0 27 2.5 A 2.5 2.5 0 0 0 27.052734 3.0039062 A 2.5 2.5 0 0 1 29.5 1 A 2.5 2.5 0 0 1 31.947266 2.9960938 A 2.5 2.5 0 0 0 32 2.5 A 2.5 2.5 0 0 0 29.5 0 z"/>
</svg>
