<?xml version="1.0" encoding="UTF-8" standalone="no"?>
<!-- Created with Inkscape (http://www.inkscape.org/) -->

<svg
   xmlns:dc="http://purl.org/dc/elements/1.1/"
   xmlns:cc="http://creativecommons.org/ns#"
   xmlns:rdf="http://www.w3.org/1999/02/22-rdf-syntax-ns#"
   xmlns:svg="http://www.w3.org/2000/svg"
   xmlns="http://www.w3.org/2000/svg"
   version="1.1"
   width="744.09375"
   height="744.09375"
   id="svg2">
  <defs
     id="defs4" />
  <metadata
     id="metadata7">
    <rdf:RDF>
      <cc:Work
         rdf:about="">
        <dc:format>image/svg+xml</dc:format>
        <dc:type
           rdf:resource="http://purl.org/dc/dcmitype/StillImage" />
        <dc:title></dc:title>
      </cc:Work>
    </rdf:RDF>
  </metadata>
  <g
     transform="translate(-665.9375,-268.78125)"
     id="layer1">
    <rect
       width="743.08966"
       height="743.08966"
       x="666.435"
       y="269.27231"
       id="rect3148"
       style="fill:#b9090b;fill-opacity:1;stroke:#b4b4b4;stroke-width:1.00031304;stroke-linecap:square;stroke-linejoin:bevel;stroke-opacity:1" />
    <g
       transform="translate(662.98062,108.45475)"
       id="g3132">
      <path
         d="m 83.680726,428.1746 0,3.52478 c 0,0 -0.0093,6.23521 -0.0093,11.65607 -5.41722,-6.01238 -13.66277,-15.1687 -13.66277,-15.1687 l -37.638959,0 0.0093,186.91048 21.686704,17.12192 22.605983,-2.82955 c 0,0 0.09967,-9.87383 0.164489,-16.57456 7.427154,6.10881 17.59391,14.4601 17.59391,14.4601 l 37.026377,-3.76827 0,-176.09184 -20.09569,-19.19181 -27.680045,-0.0486"
         id="path2999"
         style="fill:#231f20;fill-opacity:1;fill-rule:nonzero;stroke:none" />
      <path
         d="m 311.68526,428.1665 -64.35192,0 0,24.89627 c 0,0 17.01293,13.36985 19.34901,15.19707 0,3.33841 0,128.3238 0,128.3238 l 21.30505,17.09396 25.75033,-0.64905 c 0,0 0,-138.12836 0,-144.78492 4.66081,-0.0365 19.02449,-0.1418 19.02449,-0.1418 l 0,-18.12627 -19.5054,-21.80906 -1.57156,0"
         id="path3001"
         style="fill:#231f20;fill-opacity:1;fill-rule:nonzero;stroke:none" />
      <path
         d="m 571.80011,428.1746 -25.34599,0 0,171.81349 21.61459,20.04059 25.57288,2.12216 0,-174.26179 -20.41536,-19.71445 -1.42612,0"
         id="path3003"
         style="fill:#231f20;fill-opacity:1;fill-rule:nonzero;stroke:none" />
      <path
         d="m 697.72383,533.21137 c 0.23093,-1.27216 15.32266,-83.96508 15.32266,-83.96508 l -20.59362,-21.05143 -26.80857,0 c 0,0 -1.38966,8.64583 -2.27288,14.09101 -5.31958,-5.76119 -12.98496,-14.09101 -12.98496,-14.09101 l -27.63912,0 c 0,0 15.76427,82.53248 15.9871,83.73981 -0.19042,1.19924 -15.09578,93.96127 -15.09578,93.96127 l 29.30023,22.29564 17.49019,2.07314 c 0,0 0,-10.13475 0,-15.6488 7.34937,5.72756 24.09814,18.76519 24.09814,18.76519 l 23.10148,3.20147 c 0,0 -19.66583,-102.08446 -19.90487,-103.37121"
         id="path3005"
         style="fill:#231f20;fill-opacity:1;fill-rule:nonzero;stroke:none" />
      <path
         d="m 502.30932,570.42492 c 0,-11.00217 0,-123.15169 0,-123.15169 l -20.14391,-19.09863 -27.06787,0 0,167.63359 21.47684,18.79679 48.98227,2.4483 -1.08175,-21.74018 c 0,0 -17.239,-19.35873 -22.16558,-24.88818"
         id="path3007"
         style="fill:#231f20;fill-opacity:1;fill-rule:nonzero;stroke:none" />
      <path
         d="m 208.45504,465.35088 c 4.88242,0 21.03604,0 21.03604,0 l 0,-17.98447 -20.07382,-19.22017 -1.41153,0 -46.81675,0.0405 0,174.34769 21.1673,16.6726 47.1348,-2.95919 0,-19.28742 c 0,0 -19.37575,-21.42863 -21.03604,-23.26273 0,-2.26315 0,-25.66525 0,-31.16633 4.90471,0 21.31599,0 21.31599,0 l 0,-19.43895 c 0,0 -19.44988,-19.45921 -21.31599,-21.33504 0,-2.47544 0,-30.73039 0,-36.4065"
         id="path3009"
         style="fill:#231f20;fill-opacity:1;fill-rule:nonzero;stroke:none" />
      <path
         d="m 404.90794,465.34278 c 4.87797,0 21.03118,0 21.03118,0 l 0,-17.98447 -20.06693,-19.21612 -1.41801,0.004 -46.84511,0.0284 0,166.45785 21.49345,17.82971 25.80542,0.17381 c 0,0 0,-63.75028 0,-70.11554 4.90633,0 21.31073,0.0109 21.31073,0.0109 l 0,-19.43895 c 0,0 -19.45515,-19.45921 -21.31073,-21.33504 0,-2.48355 0,-30.74255 0,-36.4146"
         id="path3011"
         style="fill:#231f20;fill-opacity:1;fill-rule:nonzero;stroke:none" />
      <path
         d="m 552.05325,596.78945 c 0,0 6.54313,0.32453 17.7657,1.13482 l 0,-164.77041 -17.7657,0.0284 0,163.60723"
         id="path3013"
         style="fill:#ffffff;fill-opacity:1;fill-rule:nonzero;stroke:none" />
      <path
         d="m 252.95151,449.60687 19.34901,0 0,143.34503 c 0,0 4.156,-0.32452 17.7187,-0.64418 l 0.0855,-142.66439 19.59129,0 0,-16.44896 -56.74448,-0.004 0,16.41655"
         id="path3015"
         style="fill:#ffffff;fill-opacity:1;fill-rule:nonzero;stroke:none" />
      <path
         d="m 89.851519,574.79119 -1.255145,0.15355 -21.624717,-141.73822 -28.803515,-0.0365 0.01134,177.91217 c 0,0 5.72108,-0.8184 17.88197,-2.21413 l -1.251904,-135.21171 1.250283,-0.12154 20.572145,133.22649 c 0,0 7.031325,-0.83056 30.950794,-3.19337 l 0,-170.38575 -18.373818,0.008 0.642563,141.60087"
         id="path3017"
         style="fill:#ffffff;fill-opacity:1;fill-rule:nonzero;stroke:none" />
      <path
         d="m 690.12732,433.15386 -20.02236,0 -10.05979,63.5716 -1.18303,0 -10.43254,-63.5716 -19.66178,0 15.35912,78.63091 -14.84458,91.90029 19.09457,1.81667 9.83697,-75.76571 1.20734,0.019 9.53311,77.88018 20.94609,2.34377 -14.96613,-95.94973 15.19301,-80.87542"
         id="path3019"
         style="fill:#ffffff;fill-opacity:1;fill-rule:nonzero;stroke:none" />
      <path
         d="m 478.5596,433.1336 -17.83862,0.0365 0,159.20572 c 0,0 12.08959,0.33385 41.23586,1.63153 l 0,-16.14429 c 0,0 -3.26144,-0.34154 -23.39724,-1.03475 l 0,-143.69467"
         id="path3021"
         style="fill:#ffffff;fill-opacity:1;fill-rule:nonzero;stroke:none" />
      <path
         d="m 166.79945,598.7455 c 0,0 10.52896,-0.72156 40.98142,-2.68085 l 0,-16.26301 -23.02206,1.58453 0,-56.99444 23.02206,-0.0174 0,-16.58023 -23.11403,0.008 0,-58.1791 23.18858,0 0,-16.45302 -41.05597,0.0203 0,165.55518"
         id="path3023"
         style="fill:#ffffff;fill-opacity:1;fill-rule:nonzero;stroke:none" />
      <path
         d="m 363.2086,591.07162 17.99906,0 0,-66.67989 23.01559,-0.0255 0,-16.57618 -23.10432,0.0122 0,-58.1791 23.1894,0 0,-16.45302 -41.09973,0.0122 0,157.8894"
         id="path3025"
         style="fill:#ffffff;fill-opacity:1;fill-rule:nonzero;stroke:none" />
    </g>
  </g>
</svg>
